<svg width="87" height="19" viewBox="0 0 87 19" fill="none" xmlns="http://www.w3.org/2000/svg">
<path d="M17.4772 8.976V10.272C17.4772 12.672 16.7092 14.616 15.1732 16.104C13.6372 17.592 11.6532 18.336 9.2212 18.336C6.6292 18.336 4.4772 17.496 2.7652 15.816C1.0692 14.12 0.221199 12.056 0.221199 9.624C0.221199 7.176 1.0612 5.104 2.7412 3.408C4.4372 1.712 6.5332 0.863999 9.0292 0.863999C10.5972 0.863999 12.0292 1.224 13.3252 1.944C14.6212 2.648 15.6292 3.592 16.3492 4.776L13.5172 6.408C13.1172 5.72 12.5092 5.16 11.6932 4.728C10.8932 4.296 9.9972 4.08 9.0052 4.08C7.4052 4.08 6.0852 4.608 5.0452 5.664C4.0212 6.704 3.5092 8.024 3.5092 9.624C3.5092 11.208 4.0292 12.52 5.0692 13.56C6.1252 14.584 7.5172 15.096 9.2452 15.096C10.5252 15.096 11.5812 14.816 12.4132 14.256C13.2612 13.68 13.8372 12.896 14.1412 11.904H9.0532V8.976H17.4772ZM22.7849 8.064C23.0729 7.296 23.5449 6.72 24.2009 6.336C24.8729 5.952 25.6169 5.76 26.4329 5.76V9.216C25.4889 9.104 24.6409 9.296 23.8889 9.792C23.1529 10.288 22.7849 11.112 22.7849 12.264V18H19.6889V6H22.7849V8.064ZM38.0223 16.512C36.7903 17.728 35.2863 18.336 33.5103 18.336C31.7343 18.336 30.2303 17.728 28.9983 16.512C27.7823 15.28 27.1743 13.776 27.1743 12C27.1743 10.224 27.7823 8.728 28.9983 7.512C30.2303 6.28 31.7343 5.664 33.5103 5.664C35.2863 5.664 36.7903 6.28 38.0223 7.512C39.2543 8.728 39.8703 10.224 39.8703 12C39.8703 13.776 39.2543 15.28 38.0223 16.512ZM31.1823 14.376C31.8063 15 32.5823 15.312 33.5103 15.312C34.4383 15.312 35.2143 15 35.8383 14.376C36.4623 13.752 36.7743 12.96 36.7743 12C36.7743 11.04 36.4623 10.248 35.8383 9.624C35.2143 9 34.4383 8.688 33.5103 8.688C32.5823 8.688 31.8063 9 31.1823 9.624C30.5743 10.248 30.2703 11.04 30.2703 12C30.2703 12.96 30.5743 13.752 31.1823 14.376ZM55.0916 6H58.3796L54.5636 18H51.6116L49.4036 10.728L47.1956 18H44.2436L40.4276 6H43.7156L45.7556 13.368L47.9396 6H50.8676L53.0516 13.392L55.0916 6Z" fill="black"/>
<path d="M70.3443 9.288C71.8163 10.136 72.5523 11.416 72.5523 13.128C72.5523 14.552 72.0483 15.72 71.0403 16.632C70.0323 17.544 68.7923 18 67.3203 18H60.1923V1.2H66.8163C68.2563 1.2 69.4643 1.648 70.4403 2.544C71.4323 3.424 71.9283 4.552 71.9283 5.928C71.9283 7.32 71.4003 8.44 70.3443 9.288ZM66.8163 4.296H63.5043V7.992H66.8163C67.3283 7.992 67.7523 7.816 68.0883 7.464C68.4403 7.112 68.6163 6.672 68.6163 6.144C68.6163 5.616 68.4483 5.176 68.1123 4.824C67.7763 4.472 67.3443 4.296 66.8163 4.296ZM67.3203 14.904C67.8803 14.904 68.3443 14.72 68.7123 14.352C69.0803 13.968 69.2643 13.488 69.2643 12.912C69.2643 12.352 69.0803 11.888 68.7123 11.52C68.3443 11.136 67.8803 10.944 67.3203 10.944H63.5043V14.904H67.3203ZM77.3831 13.272C77.7991 14.776 78.9271 15.528 80.7671 15.528C81.9511 15.528 82.8471 15.128 83.4551 14.328L85.9511 15.768C84.7671 17.48 83.0231 18.336 80.7191 18.336C78.7351 18.336 77.1431 17.736 75.9431 16.536C74.7431 15.336 74.1431 13.824 74.1431 12C74.1431 10.192 74.7351 8.688 75.9191 7.488C77.1031 6.272 78.6231 5.664 80.4791 5.664C82.2391 5.664 83.6871 6.272 84.8231 7.488C85.9751 8.704 86.5511 10.208 86.5511 12C86.5511 12.4 86.5111 12.824 86.4311 13.272H77.3831ZM77.3351 10.872H83.4551C83.2791 10.056 82.9111 9.448 82.3511 9.048C81.8071 8.648 81.1831 8.448 80.4791 8.448C79.6471 8.448 78.9591 8.664 78.4151 9.096C77.8711 9.512 77.5111 10.104 77.3351 10.872Z" fill="#F25822"/>
</svg>
